<svg width="1080" height="1080" viewBox="0 0 1080 1080" fill="none" xmlns="http://www.w3.org/2000/svg">
<g clip-path="url(#clip0_0_1)">
<rect width="1080" height="1080" rx="170" fill="white"/>
<path d="M395.628 362.22C394.905 320.805 427.893 286.646 469.308 285.923L777.756 280.539C819.171 279.816 853.33 312.803 854.053 354.218L862.788 854.621C863.511 896.036 830.523 930.196 789.108 930.919L480.66 936.303C439.245 937.026 405.085 904.038 404.363 862.623L395.628 362.22Z" fill="url(#paint0_linear_0_1)"/>
<path d="M563.665 960.913C535.317 980.093 497.58 977.647 471.944 954.97L307.131 809.174C283.863 788.591 275.693 755.792 286.587 726.699L471.468 232.968C479.396 211.796 496.451 195.33 517.888 188.151L735.593 115.242C773.593 102.516 814.885 121.912 829.352 159.285L993.32 582.866C1005.29 613.798 995.527 648.922 969.305 669.234L793.5 805.413L563.665 960.913Z" fill="url(#paint1_linear_0_1)"/>
<path d="M252 365C252 307.01 299.01 260 357 260L722 260C779.99 260 827 307.01 827 365L827 715C827 772.99 779.99 820 722 820L357 820C299.01 820 252 772.99 252 715L252 365Z" fill="url(#paint2_linear_0_1)"/>
<path d="M252 365C252 307.01 299.01 260 357 260L722 260C779.99 260 827 307.01 827 365L827 715C827 772.99 779.99 820 722 820L357 820C299.01 820 252 772.99 252 715L252 365Z" fill="url(#paint3_linear_0_1)"/>
<path fill-rule="evenodd" clip-rule="evenodd" d="M222.169 378.772C227.934 337.754 265.859 309.176 306.877 314.94L645.91 362.588C686.928 368.353 715.507 406.279 709.742 447.297L650.594 868.16C647.27 891.81 633.254 911.323 614.119 922.504L564.13 958.491C535.691 978.964 496.865 977.015 470.619 953.797L423.32 911.956L226.853 884.345C185.834 878.58 157.256 840.655 163.021 799.637L222.169 378.772Z" fill="url(#paint4_linear_0_1)"/>
<path d="M359.113 794.791C328.388 809.359 291.707 801.433 269.737 775.48L76.3814 547.062C47.6637 513.137 54.584 461.821 91.2625 436.715L337.797 267.965C368.102 247.221 408.972 251.474 434.357 278.013L679.132 533.908C714.489 570.872 703.285 631.605 657.066 653.519L359.113 794.791Z" fill="url(#paint5_linear_0_1)"/>
<path d="M154.038 561.832C118.952 541.332 106.574 496.619 126.123 460.995L300.148 143.867C318.768 109.935 360.151 95.7451 395.676 111.112L771.008 273.473C810.046 290.36 827.243 336.297 808.89 374.669L631.046 746.504C612.12 786.074 563.423 801.028 525.55 778.9L154.038 561.832Z" fill="url(#paint6_linear_0_1)"/>
<path d="M154.038 561.832C118.952 541.332 106.574 496.619 126.123 460.995L300.148 143.867C318.768 109.935 360.151 95.7451 395.676 111.112L771.008 273.473C810.046 290.36 827.243 336.297 808.89 374.669L631.046 746.504C612.12 786.074 563.423 801.028 525.55 778.9L154.038 561.832Z" fill="url(#paint7_linear_0_1)" fill-opacity="0.7"/>
<path d="M252 365C252 307.01 299.01 260 357 260H722C779.99 260 827 307.01 827 365V715C827 772.99 779.99 820 722 820H357C299.01 820 252 772.99 252 715V365Z" fill="black"/>
<path d="M354.958 359.95H400.093L462.313 541H419.473L405.448 500.455H349.093L335.323 541H292.483L354.958 359.95ZM398.563 471.64L377.398 402.025L355.723 471.64H398.563ZM462.466 448.945C462.466 437.895 464.506 427.1 468.586 416.56C472.666 405.85 478.616 396.16 486.436 387.49C494.256 378.82 503.776 371.935 514.996 366.835C526.216 361.565 538.966 358.93 553.246 358.93C570.246 358.93 584.951 362.585 597.361 369.895C609.941 377.205 619.291 386.725 625.411 398.455L593.281 420.895C590.561 414.435 586.906 409.42 582.316 405.85C577.896 402.28 572.966 399.815 567.526 398.455C562.256 396.925 557.156 396.16 552.226 396.16C544.236 396.16 537.266 397.775 531.316 401.005C525.366 404.065 520.436 408.23 516.526 413.5C512.616 418.77 509.726 424.635 507.856 431.095C505.986 437.555 505.051 444.015 505.051 450.475C505.051 457.615 506.156 464.5 508.366 471.13C510.576 477.76 513.721 483.625 517.801 488.725C522.051 493.825 527.151 497.905 533.101 500.965C539.051 503.855 545.596 505.3 552.736 505.3C557.836 505.3 563.021 504.45 568.291 502.75C573.561 501.05 578.406 498.415 582.826 494.845C587.416 491.105 590.901 486.26 593.281 480.31L627.451 500.455C623.881 509.295 618.016 516.86 609.856 523.15C601.696 529.44 592.431 534.285 582.061 537.685C571.861 540.915 561.746 542.53 551.716 542.53C538.626 542.53 526.556 539.895 515.506 534.625C504.626 529.185 495.191 522.045 487.201 513.205C479.381 504.195 473.261 494.165 468.841 483.115C464.591 471.895 462.466 460.505 462.466 448.945ZM757.113 412.99C756.603 412.14 754.818 410.865 751.758 409.165C748.698 407.295 744.873 405.34 740.283 403.3C735.693 401.26 730.678 399.475 725.238 397.945C719.798 396.415 714.358 395.65 708.918 395.65C701.778 395.65 696.253 396.925 692.343 399.475C688.433 401.855 686.478 405.595 686.478 410.695C686.478 414.775 687.923 418.005 690.813 420.385C693.873 422.765 698.208 424.89 703.818 426.76C709.428 428.46 716.313 430.5 724.473 432.88C736.033 435.94 746.063 439.68 754.563 444.1C763.063 448.35 769.523 453.875 773.943 460.675C778.533 467.475 780.828 476.485 780.828 487.705C780.828 497.905 778.958 506.575 775.218 513.715C771.478 520.685 766.378 526.38 759.918 530.8C753.628 535.05 746.403 538.195 738.243 540.235C730.083 542.105 721.668 543.04 712.998 543.04C704.158 543.04 695.063 542.19 685.713 540.49C676.533 538.62 667.693 536.07 659.193 532.84C650.693 529.44 642.873 525.36 635.733 520.6L654.093 484.135C654.773 484.985 656.983 486.6 660.723 488.98C664.463 491.19 669.053 493.57 674.493 496.12C680.103 498.5 686.308 500.625 693.108 502.495C699.908 504.365 706.793 505.3 713.763 505.3C721.243 505.3 726.768 504.11 730.338 501.73C734.078 499.35 735.948 496.035 735.948 491.785C735.948 487.195 733.993 483.625 730.083 481.075C726.343 478.525 721.158 476.23 714.528 474.19C708.068 472.15 700.588 469.855 692.088 467.305C681.038 463.905 671.858 460.08 664.548 455.83C657.408 451.58 652.053 446.395 648.483 440.275C645.083 434.155 643.383 426.505 643.383 417.325C643.383 404.575 646.358 393.865 652.308 385.195C658.428 376.355 666.588 369.725 676.788 365.305C686.988 360.715 698.123 358.42 710.193 358.42C718.693 358.42 726.853 359.44 734.673 361.48C742.663 363.52 750.058 366.07 756.858 369.13C763.828 372.19 770.033 375.25 775.473 378.31L757.113 412.99Z" fill="white"/>
<path d="M445.624 678.543L498.417 697.635V720.13L426.698 689.749V673.812L445.624 678.543ZM498.417 662.938L445.541 682.361L426.698 686.844V670.906L498.417 640.525V662.938ZM569.804 611.141L525.478 742.376H507.714L552.04 611.141H569.804ZM635.048 681.863L581.84 662.854V640.525L654.14 670.906V686.927L635.048 681.863ZM581.84 697.801L635.131 678.377L654.14 673.812V689.749L581.84 720.13V697.801Z" fill="white"/>
</g>
<defs>
<linearGradient id="paint0_linear_0_1" x1="629" y1="984" x2="904" y2="713.5" gradientUnits="userSpaceOnUse">
<stop stop-color="#FC6369"/>
<stop offset="1" stop-color="#F87451"/>
</linearGradient>
<linearGradient id="paint1_linear_0_1" x1="543" y1="587.5" x2="999" y2="615.5" gradientUnits="userSpaceOnUse">
<stop stop-color="#7D40D1"/>
<stop offset="1" stop-color="#CC3699"/>
</linearGradient>
<linearGradient id="paint2_linear_0_1" x1="543" y1="587.5" x2="999" y2="615.5" gradientUnits="userSpaceOnUse">
<stop stop-color="#7D40D1"/>
<stop offset="1" stop-color="#CC3699"/>
</linearGradient>
<linearGradient id="paint3_linear_0_1" x1="543" y1="587.5" x2="999" y2="615.5" gradientUnits="userSpaceOnUse">
<stop stop-color="#7D40D1"/>
<stop offset="1" stop-color="#CC3699"/>
</linearGradient>
<linearGradient id="paint4_linear_0_1" x1="570" y1="956" x2="124.777" y2="824.709" gradientUnits="userSpaceOnUse">
<stop stop-color="#9646BE" stop-opacity="0.2"/>
<stop offset="0.35" stop-color="#4203E2"/>
<stop offset="1" stop-color="#0A70FF"/>
</linearGradient>
<linearGradient id="paint5_linear_0_1" x1="152" y1="556" x2="344.5" y2="437" gradientUnits="userSpaceOnUse">
<stop stop-color="#1099F4"/>
<stop offset="1" stop-color="#00C0C7"/>
</linearGradient>
<linearGradient id="paint6_linear_0_1" x1="209.5" y1="370.5" x2="171.5" y2="516.5" gradientUnits="userSpaceOnUse">
<stop stop-color="#00C0C7"/>
<stop offset="0.887316" stop-color="#0EABE8" stop-opacity="0"/>
</linearGradient>
<linearGradient id="paint7_linear_0_1" x1="227.5" y1="235.5" x2="571" y2="158" gradientUnits="userSpaceOnUse">
<stop stop-color="white" stop-opacity="0"/>
<stop offset="1" stop-color="#306BCA"/>
</linearGradient>
<clipPath id="clip0_0_1">
<rect width="1080" height="1080" rx="170" fill="white"/>
</clipPath>
</defs>
</svg>
